<svg width="186" height="48" viewBox="0 0 186 48" fill="none" xmlns="http://www.w3.org/2000/svg">
<g clip-path="url(#clip0_61_34)">
<path d="M62.5652 21.8402L59.1098 15.2407H59.0839V21.8402H53.3153V3.4447H61.8897C63.3794 3.4447 64.6529 3.70858 65.7092 4.23717C66.7656 4.76576 67.558 5.48475 68.0866 6.39413C68.6152 7.30351 68.8791 8.32979 68.8791 9.47299C68.8791 10.703 68.5367 11.7945 67.8528 12.7473C67.1689 13.7001 66.1852 14.384 64.9034 14.7998L68.905 21.841H62.5652V21.8402ZM59.0839 11.3953H61.3703C61.9247 11.3953 62.3406 11.27 62.6178 11.0187C62.8951 10.7673 63.0337 10.3732 63.0337 9.83624C63.0337 9.35107 62.8909 8.97028 62.6053 8.69305C62.3197 8.41581 61.908 8.27719 61.3711 8.27719H59.0847V11.3953H59.0839Z" fill="#FA3075"/>
<path d="M76.4923 8.04337V10.3039H82.2083V14.6428H76.4923V17.2415H82.9883V21.8402H70.7246V3.4447H82.9883V8.04337H76.4923Z" fill="#FA3075"/>
<path d="M96.4987 10.5895V15.3443H84.3903V10.5895H96.4987Z" fill="#FA3075"/>
<path d="M105.905 8.04337V10.3039H111.621V14.6428H105.905V17.2415H112.401V21.8402H100.137V3.4447H112.401V8.04337H105.905Z" fill="#FA3075"/>
<path d="M126.38 19.0603H120.248L119.338 21.8402H113.284L120.014 3.44385H126.665L133.369 21.8402H127.289L126.38 19.0603ZM124.977 14.7213L123.314 9.60241L121.651 14.7213H124.978H124.977Z" fill="#FA3075"/>
<path d="M143.917 21.8402L140.462 15.2407H140.436V21.8402H134.668V3.4447H143.242C144.732 3.4447 146.005 3.70858 147.061 4.23717C148.118 4.76576 148.91 5.48475 149.439 6.39413C149.967 7.30351 150.231 8.32979 150.231 9.47299C150.231 10.703 149.889 11.7945 149.205 12.7473C148.521 13.7001 147.537 14.384 146.256 14.7998L150.257 21.841H143.917V21.8402ZM140.436 11.3953H142.722C143.277 11.3953 143.693 11.27 143.97 11.0187C144.247 10.7673 144.386 10.3732 144.386 9.83624C144.386 9.35107 144.243 8.97028 143.958 8.69305C143.672 8.41581 143.26 8.27719 142.723 8.27719H140.437V11.3953H140.436Z" fill="#FA3075"/>
<path d="M166.522 3.4447V8.01748H161.637V21.8402H155.869V8.01748H151.036V3.4447H166.522Z" fill="#FA3075"/>
<path d="M185.1 3.4447V21.841H179.331V14.6696H173.849V21.841H168.081V3.4447H173.849V10.0701H179.331V3.4447H185.1Z" fill="#FA3075"/>
<path d="M58.7958 27.2965V44.4044H53.4322V27.2965H58.7966H58.7958Z" fill="#FA3075"/>
<path d="M77.9988 44.4052H72.6344L66.956 35.8033V44.4052H61.5916V27.2974H66.956L72.6344 36.0446V27.2974H77.9988V44.4052Z" fill="#FA3075"/>
<path d="M86.1598 27.2965V44.4044H80.7954V27.2965H86.1598Z" fill="#FA3075"/>
<path d="M102.39 27.2965V31.5495H97.8473V44.4052H92.4829V31.5495H87.9886V27.2965H102.39Z" fill="#FA3075"/>
<path d="M109.584 27.2965V44.4044H104.22V27.2965H109.584Z" fill="#FA3075"/>
<path d="M123.35 41.819H117.647L116.801 44.4044H111.171L117.429 27.2965H123.615L129.849 44.4044H124.194L123.348 41.819H123.35ZM122.045 37.784L120.498 33.0242L118.952 37.784H122.046H122.045Z" fill="#FA3075"/>
<path d="M144.873 27.2965V31.5495H140.33V44.4052H134.966V31.5495H130.471V27.2965H144.873Z" fill="#FA3075"/>
<path d="M152.066 27.2965V44.4044H146.702V27.2965H152.066Z" fill="#FA3075"/>
<path d="M172.092 27.2965L166.34 44.4044H159.405L153.654 27.2965H159.357L162.884 39.0642L166.388 27.2965H172.091H172.092Z" fill="#FA3075"/>
<path d="M179.043 31.5737V33.6755H184.359V37.7105H179.043V40.1272H185.083V44.4044H173.677V27.2965H185.083V31.5737H179.043Z" fill="#FA3075"/>
<path d="M26.3938 7.15317C25.5487 7.90305 24.5801 8.51264 23.7893 9.32015C23.1363 9.98652 22.6085 10.7949 22.3763 11.6984C21.9972 13.1781 22.4298 14.6963 22.7104 16.1518C22.996 17.6306 22.9175 18.9125 22.6419 20.378C22.0916 23.3082 20.5668 25.9771 18.7363 28.2927C18.8992 28.0864 20.0799 28.0973 20.3889 28.058C21.1171 27.9653 21.8043 27.9595 22.5317 28.0856C23.9571 28.3328 25.2949 28.9257 26.6694 29.3549C28.3929 29.8927 30.215 30.1599 32.0121 29.9828C35.4759 29.6405 39.1552 27.4301 40.4203 24.0781C40.999 22.5458 41.2462 20.4281 40.6458 18.859C40.3067 19.9863 40.0529 21.2665 38.8612 21.8218C38.2934 22.0865 37.6437 22.094 37.0174 22.099C35.8333 22.1082 34.6033 22.1358 33.5419 22.6602C32.367 23.2406 31.5486 24.3545 30.4622 25.0877C29.3858 25.8142 27.7942 26.2894 26.5057 25.9403C26.5926 24.6877 28.2969 23.0159 29.1662 22.2101C31.3257 20.2093 33.9569 19.5914 36.6291 18.6068C37.5535 18.2661 38.4963 17.8202 39.0491 16.9634C39.8717 15.6891 39.4834 13.71 38.9598 12.3756C38.6149 11.4955 38.1314 10.678 37.5894 9.90636C37.308 9.50553 37.0199 9.07798 36.6876 8.71723C36.5523 8.57026 35.9661 8.20367 35.9444 8.04585C36.1832 9.81367 36.1707 12.0358 34.8145 13.3902C33.5595 14.6445 32.0313 14.2779 30.2518 15.0846C28.6201 15.8244 26.7195 17.578 25.4719 21.993C25.0502 17.6332 26.1491 15.2532 27.3399 13.867C29.4259 11.4404 35.025 10.7782 33.0542 6.54024C32.0772 4.44006 30.4839 2.59876 28.4698 1.4397C28.899 1.68687 28.2151 4.05009 28.1182 4.38829C27.7925 5.51979 27.2857 6.3632 26.3938 7.154V7.15317Z" fill="#FA3075"/>
<path d="M8.39497 16.9517C9.93983 13.5723 13.6483 14.8666 16.3322 13.4562C19.0169 12.0466 21.4494 9.67086 21.624 8.22287C21.7977 6.77404 19.6157 8.22287 19.6157 8.22287C19.6157 8.22287 15.0003 11.371 14.0533 10.7331C13.1072 10.0959 14.8258 6.349 19.3451 4.72732C23.8644 3.10563 26.722 1.65681 26.9349 1.21255C27.147 0.769973 26.4907 0.303176 26.1441 0.182092C25.917 0.101927 25.6757 0.0726995 25.4352 0.0534931C24.4281 -0.0275075 23.3851 -0.00746614 22.378 0.0585035C19.0712 0.277289 16.0725 1.33948 16.0725 1.33948C15.69 1.47476 12.5536 2.62213 9.49642 4.99787C7.65428 6.42916 2.21554 11.0303 0.510353 18.9726C-1.34014 27.5921 1.95918 36.5731 8.19206 42.0812C12.1778 45.6026 16.4792 46.9228 18.8783 47.4631C18.8783 47.4631 -1.42448 37.2019 8.39581 16.9526L8.39497 16.9517Z" fill="#FA3075"/>
<path d="M39.7873 5.93068C35.8016 2.40924 31.5002 1.08901 29.1011 0.549561C29.1011 0.549561 49.4039 10.8108 39.5836 31.0601C38.0387 34.4396 34.3302 33.1452 31.6463 34.5556C28.9616 35.9652 26.5291 38.341 26.3546 39.789C26.1809 41.2378 28.3629 39.789 28.3629 39.789C28.3629 39.789 32.9783 36.6408 33.9252 37.2788C34.8713 37.9159 33.1528 41.6628 28.6335 43.2845C27.2489 43.7814 25.8753 44.3108 24.525 44.8953C23.6365 45.2795 22.748 45.6803 21.9054 46.1605C21.6766 46.2907 21.4444 46.426 21.239 46.5922C20.8156 46.9337 21.1563 47.3796 21.4929 47.6235C21.9246 47.9358 22.4131 47.9842 22.9325 47.9934C24.5709 48.0226 26.221 47.975 27.8376 47.6853C29.0744 47.464 30.2986 47.1842 31.4977 46.806C31.6296 46.7642 31.7816 46.7333 31.906 46.6715C32.2885 46.5362 35.425 45.3889 38.4821 43.0131C40.3243 41.5818 45.7622 36.9807 47.4682 29.0384C49.3187 20.4189 46.0194 11.4379 39.7865 5.92984L39.7873 5.93068Z" fill="#FA3075"/>
<path d="M30.1892 32.2074C29.4301 32.2208 28.6702 32.159 27.9211 32.0337C26.7178 31.8317 25.6014 31.45 24.4782 30.9791C22.9709 30.3469 21.5179 29.754 19.8561 29.7048C18.7681 29.6722 17.6867 29.8334 16.6186 30.0246C16.247 30.0914 15.8771 30.1515 15.5047 30.2117C15.2483 30.2534 14.8266 30.286 14.6521 30.5098C17.6407 26.6777 18.3021 25.7015 18.3021 25.7007C19.7217 23.603 20.9609 20.0173 19.8662 13.5339C19.862 13.5105 17.7184 14.2595 17.5981 14.3096C15.969 14.9802 14.4116 15.8436 13.0078 16.91C9.79202 19.3534 7.67849 22.9475 7.38538 27.0084C7.1499 30.2785 8.03088 33.5778 9.61081 36.4504C10.3649 37.8207 11.2233 39.1393 12.2137 40.3518C13.2241 41.5885 14.3848 42.7308 15.7393 43.5884C16.9919 44.3809 18.4574 44.9387 19.9505 44.9446C20.9927 44.9488 22.0215 44.7333 23.0052 44.4018C23.892 44.1028 24.7496 43.7262 25.5847 43.3054C25.6991 43.2477 25.8135 43.1893 25.9279 43.13C26.4247 42.8711 26.9249 42.6064 27.4034 42.3142C27.8285 42.0544 28.1224 41.7213 28.3445 41.2795C28.3704 41.2269 28.3971 41.1743 28.4238 41.1217C28.4339 41.1016 28.4907 41.009 28.4264 41.0206C27.8911 41.1183 27.3692 41.2737 26.8331 41.3655C26.7721 41.3755 26.7028 41.3981 26.641 41.3981C26.5567 41.4123 26.4715 41.4256 26.3871 41.439C25.3692 41.5927 24.3287 41.6645 23.31 41.4991C22.3981 41.3513 21.5171 41.0474 20.687 40.6449C19.1522 39.9 17.7902 38.8353 16.5393 37.6854C16.2378 37.409 15.2349 36.5289 15.6324 36.0921C16.1076 35.5694 17.8462 36.4095 18.3697 36.5481C19.4929 36.8437 20.6378 37.0717 21.7985 37.1502C24.2845 37.318 26.717 36.5815 28.8948 35.4233C29.9812 34.8454 31.0117 34.1648 31.9962 33.4275C32.9156 32.7385 34.1039 31.9678 34.7953 31.0526C33.2263 31.5803 31.9044 32.179 30.1875 32.2083L30.1892 32.2074ZM12.7206 27.4167C12.6396 27.4902 12.5335 27.6129 12.4316 27.6547C12.3131 27.7031 12.3356 27.7173 12.2579 27.5896C12.1461 27.4067 12.1143 27.1537 12.0801 26.9466C11.9573 26.2142 11.8922 25.4585 11.9256 24.7161C12.0091 22.8707 12.7072 20.839 14.4809 19.9889C14.4984 19.9805 14.5168 19.9722 14.5352 19.9638C15.3009 19.6156 16.2545 19.71 16.6729 20.5258C17.022 21.2064 16.6779 22.0498 16.1067 23.0502C15.6984 23.7658 15.2358 24.4497 14.7339 25.1019C14.3932 25.5445 14.0333 25.9737 13.6592 26.3879C13.3477 26.732 13.0638 27.1036 12.7206 27.4175V27.4167Z" fill="#FA3075"/>
</g>
<defs>
<clipPath id="clip0_61_34">
<rect width="185.102" height="48" fill="white" transform="translate(-0.00238037)"/>
</clipPath>
</defs>
</svg>
